<svg width="192" height="192" viewBox="0 0 192 192" fill="none" xmlns="http://www.w3.org/2000/svg">
  <rect width="192" height="192" rx="32" fill="#3B82F6"/>
  <!-- Hand icon representing "Hands On Labor" -->
  <g transform="translate(48, 48)">
    <!-- Palm -->
    <path d="M48 24C48 24 36 30 36 42C36 54 48 60 48 60C48 60 60 54 60 42C60 30 48 24 48 24Z" fill="white"/>
    <!-- Fingers -->
    <rect x="44" y="12" width="8" height="24" rx="4" fill="white"/>
    <rect x="32" y="16" width="8" height="20" rx="4" fill="white"/>
    <rect x="56" y="16" width="8" height="20" rx="4" fill="white"/>
    <rect x="68" y="20" width="8" height="16" rx="4" fill="white"/>
    <!-- Thumb -->
    <ellipse cx="28" cy="36" rx="6" ry="12" fill="white" transform="rotate(-30 28 36)"/>
  </g>
  <!-- Clock/schedule element -->
  <circle cx="144" cy="144" r="20" fill="white" opacity="0.9"/>
  <path d="M144 134 L144 144 L150 150" stroke="#3B82F6" stroke-width="2" stroke-linecap="round"/>
</svg>
